<svg width="32" height="32" viewBox="0 0 32 32" fill="none" xmlns="http://www.w3.org/2000/svg">
  <!-- Coffee cup -->
  <path d="M8 10C8 9 9 8 10 8H13C14 8 15 9 15 10V16C15 17 14 18 13 18H10C9 18 8 17 8 16V10Z" fill="#f59e0b"/>
  
  <!-- Cup handle -->
  <path d="M15 12C16 12 17 13 17 14C17 15 16 16 15 16" stroke="#d97706" stroke-width="1.5" fill="none" stroke-linecap="round"/>
  
  <!-- Steam -->
  <path d="M10 7C10 7 10.5 6.5 11 6.5C11.5 6.5 12 7 12 7" stroke="#9ca3af" stroke-width="1" fill="none" stroke-linecap="round"/>
  
  <!-- Connection dots -->
  <circle cx="9" cy="22" r="1" fill="#3b82f6"/>
  <circle cx="16" cy="23" r="1" fill="#3b82f6"/>
  <circle cx="23" cy="22" r="1" fill="#3b82f6"/>
  
  <!-- Connection lines -->
  <path d="M10 22L22 22" stroke="#3b82f6" stroke-width="0.5" opacity="0.6"/>
</svg> 