<svg width="48" height="48" viewBox="0 0 48 48" fill="none" xmlns="http://www.w3.org/2000/svg">
  <!-- Coffee cup -->
  <path d="M12 16C12 14 14 12 16 12H20C22 12 24 14 24 16V24C24 26 22 28 20 28H16C14 28 12 26 12 24V16Z" fill="#f59e0b"/>
  
  <!-- Cup handle -->
  <path d="M24 18C26 18 28 20 28 22C28 24 26 26 24 26" stroke="#d97706" stroke-width="2" fill="none" stroke-linecap="round"/>
  
  <!-- Steam -->
  <path d="M16 10C16 10 17 9 18 9C19 9 20 10 20 10" stroke="#9ca3af" stroke-width="1.5" fill="none" stroke-linecap="round"/>
  <path d="M18 9C18 9 19 8 20 8C21 8 22 9 22 9" stroke="#9ca3af" stroke-width="1.5" fill="none" stroke-linecap="round"/>
  
  <!-- Connection dots -->
  <circle cx="14" cy="34" r="1.5" fill="#3b82f6"/>
  <circle cx="24" cy="36" r="1.5" fill="#3b82f6"/>
  <circle cx="34" cy="34" r="1.5" fill="#3b82f6"/>
  
  <!-- Connection lines -->
  <path d="M15.5 34L32.5 34" stroke="#3b82f6" stroke-width="1" opacity="0.6"/>
  <path d="M14 35.5L24 37.5" stroke="#3b82f6" stroke-width="1" opacity="0.6"/>
  <path d="M24 37.5L34 35.5" stroke="#3b82f6" stroke-width="1" opacity="0.6"/>
</svg> 